<svg xmlns="http://www.w3.org/2000/svg" viewBox="0 0 100 100" width="100" height="100" fill="none">
  <title>TypeJung energy map mark</title>
  <rect width="100" height="100" rx="18" fill="#fafaf8"/>
  <circle cx="50" cy="50" r="38" stroke="#d4d4d2" stroke-width="1.2"/>
  <circle cx="50" cy="50" r="22" stroke="#d4d4d2" stroke-opacity="0.7" stroke-width="0.9" stroke-dasharray="3 4"/>
  <path d="M22 78L78 22" stroke="#2d5a3d" stroke-width="2.5" stroke-linecap="round"/>
  <path d="M50 10V90M10 50H90" stroke="#d4d4d2" stroke-opacity="0.6" stroke-width="0.8" stroke-linecap="round"/>
  <circle cx="50" cy="50" r="5" fill="#ffffff" stroke="#2d5a3d" stroke-width="1.4"/>
  <circle cx="50" cy="10" r="3.3" fill="#1a1a1a"/>
  <circle cx="78" cy="22" r="2.4" fill="#2d5a3d"/>
  <circle cx="90" cy="50" r="2.8" fill="#1a1a1a"/>
  <circle cx="78" cy="78" r="2.2" fill="#1a1a1a"/>
  <circle cx="50" cy="90" r="3.3" fill="#1a1a1a"/>
  <circle cx="22" cy="78" r="2.4" fill="#2d5a3d"/>
  <circle cx="10" cy="50" r="2.8" fill="#1a1a1a"/>
  <circle cx="22" cy="22" r="2.2" fill="#1a1a1a"/>
  <path d="M70 18L82 18L82 30" stroke="#2d5a3d" stroke-width="1.8" stroke-linecap="round" stroke-linejoin="round"/>
  <path d="M30 82L18 82L18 70" stroke="#2d5a3d" stroke-width="1.8" stroke-linecap="round" stroke-linejoin="round"/>
</svg>
