<svg xmlns="http://www.w3.org/2000/svg" viewBox="0 0 1200 630" width="1200" height="630" role="img" aria-label="TypeJung social preview">
  <defs>
    <radialGradient id="wash" cx="78%" cy="18%" r="60%">
      <stop offset="0%" stop-color="#EEF5F0"/>
      <stop offset="64%" stop-color="#FAFAF8"/>
      <stop offset="100%" stop-color="#F3F3EF"/>
    </radialGradient>
    <pattern id="grid" width="44" height="44" patternUnits="userSpaceOnUse">
      <path d="M44 0H0V44" fill="none" stroke="#D2DCD3" stroke-width="0.7" opacity="0.46"/>
    </pattern>
  </defs>

  <rect width="1200" height="630" fill="url(#wash)"/>
  <rect width="1200" height="630" fill="url(#grid)" opacity="0.36"/>
  <rect x="52" y="50" width="1096" height="530" rx="38" fill="#FFFFFF" opacity="0.74" stroke="#D2DCD3"/>

  <g transform="translate(92 88)">
    <rect width="126" height="126" rx="24" fill="#FAFAF8" stroke="#D2DCD3"/>
    <circle cx="63" cy="63" r="48" fill="none" stroke="#D2DCD3" stroke-width="2"/>
    <circle cx="63" cy="63" r="28" fill="none" stroke="#D2DCD3" stroke-width="1.4" stroke-dasharray="4 5"/>
    <path d="M27.7 98.3L98.3 27.7" fill="none" stroke="#224A31" stroke-width="4" stroke-linecap="round"/>
    <path d="M63 13V113M13 63H113" fill="none" stroke="#ABB5AD" stroke-width="1.5" stroke-linecap="round"/>
    <circle cx="63" cy="63" r="7" fill="#FAFAF8" stroke="#224A31" stroke-width="2"/>
    <circle cx="63" cy="13" r="4.4" fill="#121512"/>
    <circle cx="98.3" cy="27.7" r="3.3" fill="#224A31"/>
    <circle cx="113" cy="63" r="3.8" fill="#121512"/>
    <circle cx="98.3" cy="98.3" r="3.1" fill="#121512"/>
    <circle cx="63" cy="113" r="4.4" fill="#121512"/>
    <circle cx="27.7" cy="98.3" r="3.3" fill="#224A31"/>
    <circle cx="13" cy="63" r="3.8" fill="#121512"/>
    <circle cx="27.7" cy="27.7" r="3.1" fill="#121512"/>
    <path d="M88 23H103V38" fill="none" stroke="#224A31" stroke-width="2.8" stroke-linecap="round" stroke-linejoin="round"/>
    <path d="M38 103H23V88" fill="none" stroke="#224A31" stroke-width="2.8" stroke-linecap="round" stroke-linejoin="round"/>
  </g>

  <text x="260" y="134" font-family="Fraunces, Georgia, serif" font-size="54" font-weight="700" fill="#121512">TypeJung</text>
  <text x="262" y="174" font-family="Space Grotesk, Arial, sans-serif" font-size="21" font-weight="600" fill="#4B524C">Free Jungian function-stack map</text>

  <rect x="92" y="256" width="356" height="42" rx="21" fill="#EEF5F0" stroke="#D2DCD3"/>
  <text x="270" y="283" text-anchor="middle" font-family="Space Grotesk, Arial, sans-serif" font-size="16" font-weight="700" letter-spacing="1.2" fill="#224A31">FOR CHANGING MBTI RESULTS</text>

  <text x="92" y="372" font-family="Fraunces, Georgia, serif" font-size="58" font-weight="700" fill="#121512">Map the pattern</text>
  <text x="92" y="436" font-family="Fraunces, Georgia, serif" font-size="58" font-weight="700" fill="#121512">beneath your type.</text>
  <text x="94" y="492" font-family="Source Serif 4, Georgia, serif" font-size="29" fill="#4B524C">See all 8 functions before checkout.</text>
  <text x="94" y="532" font-family="Source Serif 4, Georgia, serif" font-size="29" fill="#4B524C">Upgrade only if the map earns trust.</text>

  <g transform="translate(760 124)">
    <rect width="290" height="338" rx="28" fill="#FAFAF8" stroke="#D2DCD3"/>
    <text x="32" y="58" font-family="Space Grotesk, Arial, sans-serif" font-size="15" font-weight="700" fill="#6F7871">SAMPLE MAP</text>
    <text x="32" y="104" font-family="Fraunces, Georgia, serif" font-size="40" font-weight="700" fill="#121512">Ti-Ne profile</text>

    <g transform="translate(54 140)">
      <circle cx="86" cy="86" r="76" fill="none" stroke="#E4EBE5" stroke-width="1.4"/>
      <circle cx="86" cy="86" r="48" fill="none" stroke="#E4EBE5" stroke-width="1" stroke-dasharray="4 5"/>
      <path d="M86 16L131 38L144 86L112 133L86 150L56 130L40 86L60 50Z" fill="#224A31" opacity="0.12" stroke="#224A31" stroke-width="2"/>
      <text x="86" y="8" text-anchor="middle" font-family="Space Grotesk, Arial, sans-serif" font-size="13" font-weight="700" fill="#121512">Ti</text>
      <text x="162" y="90" text-anchor="middle" font-family="Space Grotesk, Arial, sans-serif" font-size="13" font-weight="700" fill="#121512">Si</text>
      <text x="86" y="176" text-anchor="middle" font-family="Space Grotesk, Arial, sans-serif" font-size="13" font-weight="700" fill="#121512">Ni</text>
      <text x="10" y="90" text-anchor="middle" font-family="Space Grotesk, Arial, sans-serif" font-size="13" font-weight="700" fill="#121512">Fe</text>
    </g>
  </g>

  <g transform="translate(740 508)">
    <rect width="126" height="38" rx="19" fill="#224A31"/>
    <text x="63" y="25" text-anchor="middle" font-family="Space Grotesk, Arial, sans-serif" font-size="15" font-weight="700" fill="#FFFFFF">Free first</text>
    <rect x="142" width="154" height="38" rx="19" fill="#EEF5F0" stroke="#D2DCD3"/>
    <text x="219" y="25" text-anchor="middle" font-family="Space Grotesk, Arial, sans-serif" font-size="15" font-weight="700" fill="#224A31">No subscription</text>
  </g>
</svg>
