<svg xmlns="http://www.w3.org/2000/svg" width="1200" height="630" viewBox="0 0 1200 630">
<rect width="1200" height="630" fill="#f8f9fc"/>
<g transform="translate(56 44) scale(.58)">  <g transform="rotate(0 48 48)"><path d="M48 7 70 29 59 40 48 29 37 40 26 29Z" fill="#4144b8"/><path d="m48 7 22 22-11 11-11-11Z" fill="#787bd6"/></g>
  <g transform="rotate(90 48 48)"><path d="M48 7 70 29 59 40 48 29 37 40 26 29Z" fill="#4144b8"/><path d="m48 7 22 22-11 11-11-11Z" fill="#787bd6"/></g>
  <g transform="rotate(180 48 48)"><path d="M48 7 70 29 59 40 48 29 37 40 26 29Z" fill="#4144b8"/><path d="m48 7 22 22-11 11-11-11Z" fill="#787bd6"/></g>
  <g transform="rotate(270 48 48)"><path d="M48 7 70 29 59 40 48 29 37 40 26 29Z" fill="#4144b8"/><path d="m48 7 22 22-11 11-11-11Z" fill="#787bd6"/></g></g>
<text x="125" y="86" font-family="Schibsted Grotesk,Arial,sans-serif" font-size="34" font-weight="700" letter-spacing="-1.5" fill="#202230">TypeJung</text>
<text x="64" y="190" font-family="Schibsted Grotesk,Arial,sans-serif" font-size="18" font-weight="500" fill="#515566">A little more self-understanding</text>
<g font-family="Schibsted Grotesk,Arial,sans-serif" font-size="78" font-weight="700" letter-spacing="-4"><text x="60" y="297" fill="#202230">You’re more</text><text x="60" y="391" fill="#4144b8">than four letters.</text></g>
<text x="64" y="464" font-family="Schibsted Grotesk,Arial,sans-serif" font-size="23" fill="#515566">Find your pattern with a free cognitive-function map.</text>
<path d="M64 511H689" stroke="#dce0eb"/>
<text x="64" y="553" font-family="Schibsted Grotesk,Arial,sans-serif" font-size="18" fill="#515566">42 questions · Free results · No signup or card required</text>
<rect x="817" y="147" width="323" height="365" rx="38" fill="#edeefa"/>
<g transform="translate(848 192) scale(2.72)">  <g transform="rotate(0 48 48)"><path d="M48 7 70 29 59 40 48 29 37 40 26 29Z" fill="#4144b8"/><path d="m48 7 22 22-11 11-11-11Z" fill="#787bd6"/></g>
  <g transform="rotate(90 48 48)"><path d="M48 7 70 29 59 40 48 29 37 40 26 29Z" fill="#4144b8"/><path d="m48 7 22 22-11 11-11-11Z" fill="#787bd6"/></g>
  <g transform="rotate(180 48 48)"><path d="M48 7 70 29 59 40 48 29 37 40 26 29Z" fill="#4144b8"/><path d="m48 7 22 22-11 11-11-11Z" fill="#787bd6"/></g>
  <g transform="rotate(270 48 48)"><path d="M48 7 70 29 59 40 48 29 37 40 26 29Z" fill="#4144b8"/><path d="m48 7 22 22-11 11-11-11Z" fill="#787bd6"/></g></g>
<text x="979" y="482" text-anchor="middle" font-family="Schibsted Grotesk,Arial,sans-serif" font-size="15" fill="#515566">A pattern. Room to grow.</text>
</svg>
