<svg xmlns="http://www.w3.org/2000/svg" viewBox="0 0 1200 630" width="1200" height="630">
  <!-- Background -->
  <rect width="1200" height="630" fill="#FAF8F5"/>

  <!-- Subtle pattern -->
  <defs>
    <pattern id="grid" width="40" height="40" patternUnits="userSpaceOnUse">
      <path d="M 40 0 L 0 0 0 40" fill="none" stroke="#E8E4DE" stroke-width="0.5"/>
    </pattern>
  </defs>
  <rect width="1200" height="630" fill="url(#grid)" opacity="0.5"/>

  <!-- Logo (scaled mandala) -->
  <g transform="translate(100, 215)">
    <circle cx="100" cy="100" r="90" fill="none" stroke="#1f2937" stroke-width="4"/>
    <circle cx="100" cy="50" r="26" fill="none" stroke="#14b8a6" stroke-width="3"/>
    <circle cx="150" cy="100" r="26" fill="none" stroke="#14b8a6" stroke-width="3"/>
    <circle cx="100" cy="150" r="26" fill="none" stroke="#14b8a6" stroke-width="3"/>
    <circle cx="50" cy="100" r="26" fill="none" stroke="#14b8a6" stroke-width="3"/>
    <circle cx="100" cy="100" r="20" fill="#14b8a6"/>
    <line x1="100" y1="20" x2="100" y2="180" stroke="#1f2937" stroke-width="2"/>
    <line x1="20" y1="100" x2="180" y2="100" stroke="#1f2937" stroke-width="2"/>
    <circle cx="100" cy="20" r="6" fill="#1f2937"/>
    <circle cx="100" cy="180" r="6" fill="#1f2937"/>
    <circle cx="20" cy="100" r="6" fill="#1f2937"/>
    <circle cx="180" cy="100" r="6" fill="#1f2937"/>
  </g>

  <!-- Text content -->
  <text x="340" y="260" font-family="Georgia, serif" font-size="56" font-weight="bold" fill="#1f2937">
    Jungian Typology
  </text>
  <text x="340" y="330" font-family="Georgia, serif" font-size="56" font-weight="bold" fill="#1f2937">
    Assessment
  </text>

  <text x="340" y="400" font-family="system-ui, sans-serif" font-size="28" fill="#6B7280">
    Discover your true psychological type
  </text>
  <text x="340" y="440" font-family="system-ui, sans-serif" font-size="28" fill="#6B7280">
    based on Carl Jung's original theory
  </text>

  <!-- CTA badge -->
  <rect x="340" y="480" width="200" height="50" rx="25" fill="#14b8a6"/>
  <text x="440" y="513" font-family="system-ui, sans-serif" font-size="20" font-weight="600" fill="white" text-anchor="middle">
    Free Assessment
  </text>

  <!-- Bottom accent line -->
  <rect x="0" y="610" width="1200" height="20" fill="#14b8a6"/>
</svg>
